<svg xmlns="http://www.w3.org/2000/svg" xmlns:xlink="http://www.w3.org/1999/xlink" width="500" zoomAndPan="magnify" viewBox="0 0 375 374.999991" height="500" preserveAspectRatio="xMidYMid meet" version="1.0"><defs><g/></defs><rect x="-37.5" width="450" fill="#ffffff" y="-37.499999" height="449.999989" fill-opacity="1"/><rect x="-37.5" width="450" fill="#ffffff" y="-37.499999" height="449.999989" fill-opacity="1"/><path stroke-linecap="butt" transform="matrix(0.75, 0, 0, 0.75, 76.291691, 286.960412)" fill="none" stroke-linejoin="miter" d="M 0.00170301 6.000702 L 296.553806 6.000702 " stroke="#000000" stroke-width="12" stroke-opacity="1" stroke-miterlimit="4"/><g fill="#000000" fill-opacity="1"><g transform="translate(37.500002, 260.273404)"><g><path d="M 46.421875 2.921875 C 35.734375 2.921875 26.015625 1.082031 17.265625 -2.59375 C 8.523438 -6.28125 1.382812 -11.59375 -4.15625 -18.53125 L 18.3125 -45.171875 C 26.09375 -35.046875 34.492188 -29.984375 43.515625 -29.984375 C 49.472656 -29.984375 54.015625 -31.785156 57.140625 -35.390625 C 60.265625 -38.992188 61.828125 -44.265625 61.828125 -51.203125 L 61.828125 -113.875 L 11.453125 -113.875 L 11.453125 -145.71875 L 102.625 -145.71875 L 102.625 -53.703125 C 102.625 -34.828125 97.867188 -20.671875 88.359375 -11.234375 C 78.859375 -1.796875 64.878906 2.921875 46.421875 2.921875 Z M 46.421875 2.921875 "/></g></g></g><g fill="#000000" fill-opacity="1"><g transform="translate(171.543255, 260.273404)"><g><path d="M 87.21875 2.921875 C 71.957031 2.921875 58.253906 -0.304688 46.109375 -6.765625 C 33.960938 -13.222656 24.421875 -22.207031 17.484375 -33.71875 C 10.546875 -45.238281 7.078125 -58.285156 7.078125 -72.859375 C 7.078125 -87.429688 10.546875 -100.476562 17.484375 -112 C 24.421875 -123.519531 33.960938 -132.503906 46.109375 -138.953125 C 58.253906 -145.410156 71.957031 -148.640625 87.21875 -148.640625 C 100.539062 -148.640625 112.546875 -146.28125 123.234375 -141.5625 C 133.921875 -136.84375 142.804688 -130.039062 149.890625 -121.15625 L 123.65625 -97.421875 C 114.21875 -108.804688 102.769531 -114.5 89.3125 -114.5 C 81.394531 -114.5 74.347656 -112.757812 68.171875 -109.28125 C 61.992188 -105.8125 57.207031 -100.921875 53.8125 -94.609375 C 50.414062 -88.296875 48.71875 -81.046875 48.71875 -72.859375 C 48.71875 -64.671875 50.414062 -57.421875 53.8125 -51.109375 C 57.207031 -44.796875 61.992188 -39.898438 68.171875 -36.421875 C 74.347656 -32.953125 81.394531 -31.21875 89.3125 -31.21875 C 102.769531 -31.21875 114.21875 -36.910156 123.65625 -48.296875 L 149.890625 -24.5625 C 142.804688 -15.675781 133.921875 -8.875 123.234375 -4.15625 C 112.546875 0.5625 100.539062 2.921875 87.21875 2.921875 Z M 87.21875 2.921875 "/></g></g></g></svg>